G04 ================== begin FILE IDENTIFICATION RECORD ==================*
G04 Layout Name:  C:/Users/user/Desktop/work/ex2_rlc/allegro/ex2_rlc.brd*
G04 Film Name:    SilkT*
G04 File Format:  Gerber RS274X*
G04 File Origin:  Cadence Allegro 16.6-S034*
G04 Origin Date:  Thu Jul 11 11:35:50 2019*
G04 *
G04 Layer:  REF DES/SILKSCREEN_TOP*
G04 Layer:  PACKAGE GEOMETRY/SILKSCREEN_TOP*
G04 Layer:  BOARD GEOMETRY/SILKSCREEN_TOP*
G04 *
G04 Offset:    (0.000 0.000)*
G04 Mirror:    No*
G04 Mode:      Positive*
G04 Rotation:  0*
G04 FullContactRelief:  No*
G04 UndefLineWidth:     0.200*
G04 ================== end FILE IDENTIFICATION RECORD ====================*
%FSLAX25Y25*MOMM*%
%IR0*IPPOS*OFA0.00000B0.00000*MIA0B0*SFA1.00000B1.00000*%
%ADD10C,.2*%
G75*
%LPD*%
G75*
G54D10*
G01X1587500Y1524000D02*
X1333500D01*
Y2032000D01*
X1587500D01*
Y1524000D01*
G01X1305100Y1521000D02*
X1312900Y1525900D01*
X1318200Y1531700D01*
X1320800Y1538600D01*
X1318200Y1546300D01*
X1312900Y1552200D01*
X1305100Y1558000D01*
X1294600Y1560000D01*
X1242100D01*
G01X1320800Y1619200D02*
X1242100D01*
X1257800Y1607500D01*
G01X1320800D02*
Y1630900D01*
G01X2768600Y2857500D02*
X2057400D01*
Y3111500D01*
X2768600D01*
Y2857500D01*
G01X2298700Y3133900D02*
X2220000D01*
Y3158300D01*
X2223900Y3166100D01*
X2229200Y3170900D01*
X2239700Y3172900D01*
X2250200Y3170900D01*
X2256700Y3165100D01*
X2260700Y3158300D01*
Y3133900D01*
G01Y3158300D02*
X2298700Y3172900D01*
G01Y3232100D02*
X2220000D01*
X2235700Y3220400D01*
G01X2298700D02*
Y3243800D01*
G01X3962400Y2895600D02*
Y3073400D01*
X4165600D01*
Y2895600D01*
X3962400D01*
G01X3852700Y3164800D02*
Y3086100D01*
X3891700D01*
G01X3950900D02*
Y3164800D01*
X3939200Y3149100D01*
G01Y3086100D02*
X3962600D01*
G01X4889500Y2705100D02*
Y1993900D01*
X4635500D01*
Y2705100D01*
X4889500D01*
G01X4613100Y2235200D02*
Y2156500D01*
X4588700D01*
X4580900Y2160400D01*
X4576100Y2165700D01*
X4574100Y2176200D01*
X4576100Y2186700D01*
X4581900Y2193200D01*
X4588700Y2197200D01*
X4613100D01*
G01X4588700D02*
X4574100Y2235200D01*
G01X4533400Y2169600D02*
X4527600Y2161700D01*
X4520700Y2157800D01*
X4513000Y2156500D01*
X4503200Y2159100D01*
X4496400Y2165700D01*
X4494500Y2173600D01*
X4495400Y2181400D01*
X4499300Y2188000D01*
X4518800Y2201100D01*
X4527600Y2210300D01*
X4533400Y2223400D01*
X4535300Y2235200D01*
X4494500D01*
G01X5778500Y2095500D02*
G03I-254000J0D01*
G01X6061900Y1750500D02*
X6071500Y1744100D01*
X6082800Y1739900D01*
X6095600D01*
X6110100Y1746300D01*
X6121400Y1756800D01*
X6129400Y1769500D01*
X6135900Y1790700D01*
X6137500Y1809800D01*
X6134200Y1828800D01*
X6129400Y1841500D01*
X6119800Y1854200D01*
X6108500Y1862700D01*
X6097300Y1866900D01*
X6086000D01*
X6074700Y1862700D01*
X6065100Y1856300D01*
X6057000Y1847900D01*
G01X5967800Y1866900D02*
Y1739900D01*
X5987100Y1765300D01*
G01Y1866900D02*
X5948500D01*
M02*
