G04 ================== begin FILE IDENTIFICATION RECORD ==================*
G04 Layout Name:  C:/Users/user/Desktop/work/ex2_rlc/allegro/ex2_rlc.brd*
G04 Film Name:    TOP*
G04 File Format:  Gerber RS274X*
G04 File Origin:  Cadence Allegro 16.6-S034*
G04 Origin Date:  Thu Jul 11 11:35:50 2019*
G04 *
G04 Layer:  ETCH/TOP*
G04 Layer:  PIN/TOP*
G04 Layer:  VIA CLASS/TOP*
G04 *
G04 Offset:    (0.000 0.000)*
G04 Mirror:    No*
G04 Mode:      Positive*
G04 Rotation:  0*
G04 FullContactRelief:  No*
G04 UndefLineWidth:     0.000*
G04 ================== end FILE IDENTIFICATION RECORD ====================*
%FSLAX25Y25*MOMM*%
%IR0*IPPOS*OFA0.00000B0.00000*MIA0B0*SFA1.00000B1.00000*%
%ADD11C,1.524*%
%ADD12C,1.651*%
%ADD13R,1.27X1.6*%
%ADD10C,.635*%
%ADD14C,.254*%
%ADD15C,.308*%
G75*
%LPD*%
G75*
G36*
G01X762200Y600000D02*
Y762200D01*
X600000D01*
Y4241600D01*
X762200D01*
Y4400000D01*
X6159300D01*
Y4254300D01*
X6400000D01*
Y762200D01*
X6286300D01*
Y600000D01*
X762200D01*
G37*
%LPC*%
G75*
G36*
G01X3822500Y2946200D02*
X3008500D01*
G02Y3022800I-87500J38300D01*
G01X3822500D01*
Y3077400D01*
X3975300D01*
Y2891600D01*
X3822500D01*
Y2946200D01*
G37*
G36*
G01X4851500Y2822700D02*
X5413400Y2260800D01*
X5444100D01*
G02Y2184200I80400J-38300D01*
G01X5381600D01*
X4797300Y2768500D01*
X4794300Y2767400D01*
G02X4675000Y2819200I-31784J90078D01*
G01X4340200D01*
X4311200Y2848200D01*
X4294700D01*
X4251300Y2891600D01*
X4152700D01*
Y3077400D01*
X4305500D01*
Y2945800D01*
X4326500Y2924800D01*
X4343000D01*
X4372000Y2895800D01*
X4675000D01*
G02X4852600Y2825700I87515J-38306D01*
G01X4851500Y2822700D01*
G37*
G36*
G01X1506900Y2028600D02*
Y1981100D01*
G02X1411800Y1979600I-46362J-76096D01*
G01X1414100Y1981100D01*
Y1990200D01*
X1350600Y2053700D01*
Y2940200D01*
X1441300Y3030900D01*
X1821500D01*
G02Y2938100I83500J-46400D01*
G01X1479700D01*
X1443400Y2901800D01*
Y2092100D01*
X1506900Y2028600D01*
G37*
G36*
G01X4736300Y1749600D02*
X4591200Y1604600D01*
X1536600D01*
G02Y1697400I-76100J46400D01*
G01X4552800D01*
X4670600Y1815300D01*
X4669900Y1818100D01*
G02X4857900Y1837000I92600J23381D01*
G03X4868100Y1826300I10182J-505D01*
G01X5474500D01*
X5478100Y1829900D01*
Y1892400D01*
G02X5570900I46400J76100D01*
G01Y1791500D01*
X5512900Y1733500D01*
X4774100D01*
X4761600Y1746000D01*
X4759600D01*
G02X4739100Y1748900I3052J95479D01*
G01X4736300Y1749600D01*
G37*
%LPD*%
G75*
G54D10*
X508000Y508000D03*
Y4495800D03*
X6540500Y508000D03*
X6413500Y4508500D03*
G54D11*
X1460500Y1905000D03*
Y1651000D03*
X5524500Y1968500D03*
Y2222500D03*
G54D12*
X1905000Y2984500D03*
X2921000D03*
X4762500Y1841500D03*
Y2857500D03*
G54D13*
X3898900Y2984500D03*
X4229100D03*
G54D14*
G01X3898900D02*
X2921000D01*
G01X4762500Y2857500D02*
X4356100D01*
X4327100Y2886500D01*
X4310600D01*
X4229100Y2968000D01*
Y2984500D01*
G01X5524500Y2222500D02*
X5397500D01*
X4762500Y2857500D01*
G54D15*
G01X1460500Y1651000D02*
X4572000D01*
X4762500Y1841500D01*
G01X1460500Y1905000D02*
Y2009400D01*
X1397000Y2072900D01*
Y2921000D01*
X1460500Y2984500D01*
X1905000D01*
G01X4762500Y1841500D02*
Y1810700D01*
X4793300Y1779900D01*
X5493700D01*
X5524500Y1810700D01*
Y1968500D01*
M02*
